<svg xmlns="http://www.w3.org/2000/svg" xmlns:xlink="http://www.w3.org/1999/xlink" viewBox="0 0 240 240">
	<g>
		<path fill="#a49c9c" d="M233.538,6.452c-36.354,8.666-62.231,34.854-62.231,34.854l13.67,13.669l0.058,0.058l13.67,13.67 C198.704,68.703,224.871,42.806,233.538,6.452z" />
		<polygon fill="#a49c9c" points="97.92,112.028 33.028,150.084 5.701,177.922 18.356,191.591" />
		<polygon fill="#a49c9c" points="127.981,142.089 89.926,206.981 62.088,234.308 48.419,221.651" />
		<path fill="#a49c9c" d="M161.792,50.264L19.409,192.645l1.259,1.258l-3.49,8.636l20.293,20.294l8.635-3.492l1.258,1.259 L189.747,78.219L161.792,50.264z M33.953,208.4l-1.424-1.422l80.253-80.253l1.423,1.423L33.953,208.4z" />
		<rect fill="#ff0000" x="176.984" y="39.676" transform="matrix(0.7072 -0.707 0.707 0.7072 10.8445 145.0736)" width="7.163" height="39.536" />
	</g>
</svg>
