<svg viewBox="40 -70 512 512" xmlns="http://www.w3.org/2000/svg">
    <title>Plasma</title>
    <desc>"Tesla Turret" by Lorc from game-icons.net</desc>
    <g class="" transform="rotate(-40, 256, 128), scale(1.15)">
        <path d="m 86.25,65.438 c -16.888,0.292 -31.98,8.265 -43.625,20.53 -13.8,14.54 -22.688,35 -22.688,55.97 0,23.592 10.85,46.488 27.75,60.968 -16.63,20.026 -23.824,40.488 -23.406,58.938 0.462,20.306 10.22,37.75 24.845,48.5 14.624,10.75 34.166,14.9 53.656,9.594 18.535,-5.046 36.713,-18.573 51.032,-41.563 h 102.313 v -64.47 l -156.313,22.19 v 42.28 H 131 c -10.582,13.32 -22.16,20.546 -33.125,23.53 -14.113,3.843 -27.553,0.825 -37.688,-6.624 -10.134,-7.448 -16.917,-19.23 -17.25,-33.874 -0.312,-13.763 5.157,-30.422 20.657,-48.312 9.81,4.438 20.733,6.306 32.218,4.687 l 4,-0.56 185.625,-26.345 v -39.47 h 37.532 v 34.126 l 18.686,-2.655 v -31.47 h 34.28 l 0.005,26.592 18.687,-2.625 v -23.97 h 27.938 c 4,15.145 17.786,26.314 34.187,26.314 19.532,0 35.375,-15.844 35.375,-35.376 0,-19.532 -15.843,-35.344 -35.375,-35.344 -16.19,0 -29.804,10.872 -34,25.72 h -28.125 v -20.47 l -18.688,-2.97 v 23.44 h -34.28 v -28.907 l -18.688,-2.97 v 31.876 H 285.438 V 94.843 L 273.22,92.905 95.81,66.062 c -3.24,-0.494 -6.435,-0.68 -9.562,-0.624 z m 119.938,44.718 -5,21.813 62.218,11.843 -82.437,27.562 5,-21.813 -62.22,-11.812 82.438,-27.594 z" />
    </g>
</svg>
