<svg viewBox="22.947601318359375 -17.659942626953125 435 435.1929626464844" version="1.1" xmlns="http://www.w3.org/2000/svg">
    <title>Missile</title>
    <desc>Missile Launcher by Delapouite from game-icons.net (modified)</desc>
    <g transform="rotate(-9, 237, 237)">
        <path d="m 490.74,21.411 c -8.947,0.782 -20.72,3.22 -33.566,7.781 -16.386,5.82 -34.345,14.758 -50.969,25.893 L 432.988,91.61 C 448.7,79.09 462.841,64.685 473.416,50.853 481.681,40.042 487.471,29.61 490.74,21.411 Z M 391.475,65.437 57.609,310.24 l 8.28,11.291 83.062,-60.906 10.643,14.516 -83.063,60.906 8.28,11.29 333.865,-244.806 z M 69.354,241.026 21.26,260.67 l 25.705,35.057 65.54,-48.057 z m 91.64,72.77 -65.54,48.058 25.706,35.06 33.194,-39.964 z m -117.9,7.09 -11.291,8.279 27.2,37.096 11.29,-8.28 z" />
    </g>
</svg>
