<?xml version="1.0" encoding="utf-8"?>
<svg version="1.1" id="Capa_1" x="0px" y="0px" viewBox="0 15.751303672790527 372.8818054199219 372.8800048828125" style="enable-background:new 0 0 375.608 375.608;" xmlns="http://www.w3.org/2000/svg">
  <title>Dice</title>
  <desc>Dice by Freepik http://www.flaticon.com/authors/freepik from www.flaticon.com</desc>
  <g id="die2" transform="matrix(1.09009, 0, 0, 1.076912, -33.94949, -1.15384)">
    <path id="die2Border" d="M 369.923 129.943 L 327.493 34.292 C 324.143 26.74 318.053 20.944 310.344 17.973 C 302.634 15.002 294.23 15.211 286.679 18.56 L 191.029 60.99 C 183.476 64.34 177.681 70.43 174.71 78.139 C 171.739 85.848 171.947 94.252 175.298 101.804 L 217.728 197.455 C 221.078 205.007 227.168 210.802 234.877 213.773 C 238.489 215.165 242.253 215.859 246.011 215.859 C 250.274 215.859 254.53 214.966 258.542 213.186 L 354.192 170.756 L 354.192 170.756 C 369.782 163.841 376.839 145.532 369.923 129.943 Z M 356.514 148.213 C 354.984 152.184 351.999 155.32 348.11 157.046 L 348.11 157.046 L 252.46 199.476 C 248.569 201.202 244.241 201.308 240.272 199.779 C 236.301 198.249 233.165 195.264 231.439 191.375 L 189.009 95.724 C 187.283 91.835 187.176 87.506 188.706 83.536 C 190.236 79.566 193.222 76.429 197.111 74.704 L 292.761 32.274 C 294.828 31.357 297.02 30.897 299.215 30.897 C 301.151 30.897 303.089 31.254 304.949 31.972 C 308.92 33.502 312.056 36.487 313.782 40.376 L 356.212 136.027 C 357.937 139.914 358.044 144.242 356.514 148.213 Z"/>
    <path id="die2dot3" d="M 300.799 54.68 C 294.615 50.782 286.442 51.403 280.897 56.179 C 275.582 60.76 273.546 68.384 275.905 75.049 C 278.292 81.789 284.779 86.447 291.857 86.447 C 299.85 86.447 306.888 80.544 308.462 72.621 C 309.839 65.7 306.712 58.405 300.799 54.68 Z"/>
    <path id="die2Dot2" d="M 256.264 173.752 C 264.516 173.752 271.799 167.814 273.488 159.809 C 274.985 152.722 271.764 145.209 265.553 141.401 C 259.039 137.41 250.419 138.085 244.661 143.114 C 239.291 147.804 237.289 155.503 239.717 162.184 C 242.206 169.028 248.923 173.752 256.264 173.752 Z"/>
  </g>
  <g id="die5" transform="matrix(1.129169, 0, 0, 1.090965, 0, 30.143675)">
    <path id="die5Border" d="M135.568,161.72H30.93C13.875,161.72,0,175.595,0,192.649v104.639c0,17.055,13.875,30.93,30.93,30.93h104.639&#10;&#9;&#9;c17.055,0,30.93-13.875,30.93-30.93V192.649C166.498,175.595,152.623,161.72,135.568,161.72z M151.498,297.288&#10;&#9;&#9;c0,8.784-7.146,15.93-15.93,15.93H30.93c-8.783,0-15.93-7.146-15.93-15.93V192.649c0-8.784,7.146-15.93,15.93-15.93h104.639&#10;&#9;&#9;c8.783,0,15.93,7.146,15.93,15.93V297.288z"/>
    <path id="die5dot1" d="M 49.526 226.265 C 56.59 226.265 62.806 220.917 64.207 213.741 C 65.433 207.456 62.646 200.875 57.423 197.489 C 52.04 193.999 44.936 194.508 40.038 198.683 C 35.275 202.742 33.384 209.645 35.37 215.701 C 37.41 221.926 43.182 226.265 49.526 226.265 Z"/>
    <path id="die5Dot2" d="M 58.039 266.364 C 52.503 262.926 45.232 263.419 40.184 267.531 C 35.275 271.528 33.366 278.373 35.39 284.349 C 37.477 290.514 43.418 294.779 49.929 294.779 C 57.182 294.779 63.562 289.517 65.007 282.422 C 66.27 276.21 63.409 269.699 58.039 266.364 Z"/>
    <path id="die5Dot3" d="M 117.058 225.432 C 124.289 225.432 130.67 220.197 132.151 213.139 C 133.461 206.891 130.639 200.267 125.197 196.91 C 119.489 193.391 111.936 193.986 106.89 198.42 C 102.185 202.555 100.43 209.343 102.558 215.232 C 104.738 221.267 110.626 225.432 117.058 225.432 Z"/>
    <path id="die5Dot4" d="M 92.263 234.768 C 86.611 231.266 79.129 231.866 74.12 236.25 C 69.511 240.285 67.784 246.86 69.74 252.648 C 71.808 258.768 77.733 263.02 84.197 263.02 C 91.492 263.02 97.923 257.635 99.236 250.472 C 100.352 244.381 97.521 238.025 92.263 234.768 Z"/>
    <path id="die5Dot5" d="M 124.598 266.114 C 118.937 262.611 111.472 263.148 106.385 267.454 C 101.505 271.585 99.694 278.491 101.832 284.495 C 104.005 290.598 109.939 294.777 116.416 294.777 C 123.71 294.777 130.198 289.472 131.629 282.31 C 132.877 276.049 130.028 269.474 124.598 266.114 Z"/>
  </g>
</svg>
